<svg 
  xmlns="http://www.w3.org/2000/svg" 
  height="48" width="48">
  <path 
    fill="#E2DDDD"
    d="M8.1 28q0 4.75 2.475 8.6 2.475 3.85 6.525 5.75-1.2-1.3-1.825-2.9-.625-1.6-.625-3.35 0-1.9.7-3.55t2.05-3l6.6-6.5 6.7 6.5q1.3 1.35 2 3t.7 3.55q0 1.75-.625 3.35t-1.825 2.9q4.05-1.9 6.525-5.75 2.475-3.85 2.475-8.6 0-4.45-2.175-8.15t-5.725-5.8l-.9 1.05q-.65.85-1.45 1.2-.8.35-1.65.35-1.55 0-2.825-1.1-1.275-1.1-1.275-2.95V6.1q-.25.1-2.75 1.625t-5.425 4.325q-2.925 2.8-5.3 6.8T8.1 28Zm15.9-.9-4.6 4.5q-.9.9-1.4 2.05-.5 1.15-.5 2.45 0 2.65 1.9 4.525Q21.3 42.5 24 42.5q2.7 0 4.6-1.875 1.9-1.875 1.9-4.525 0-1.3-.5-2.45-.5-1.15-1.4-2.05Z"
  />
</svg>