<svg width="49" height="57" viewBox="0 0 49 57" fill="none" xmlns="http://www.w3.org/2000/svg">
<path d="M41.2642 10.2713C38.5764 11.6919 36.0701 13.271 33.7829 14.9187C32.003 10.2767 29.5612 5.39734 26.5848 0.658743C13.8875 7.3693 3.3758 17.7292 1.38918 25.1434C-2.13954 38.3127 5.37926 51.769 18.1823 55.1996C30.9853 58.6301 44.2249 50.736 47.7536 37.5667C49.2308 32.0537 46.8981 19.2415 41.2642 10.2713V10.2713ZM29.8028 44.986C27.1407 45.9543 24.1272 46.144 21.1404 45.3437C13.6734 43.3429 8.92128 36.7741 11.0707 28.7525C12.1414 24.7566 15.6006 21.91 22.2296 17.2394C22.7256 18.2574 28.982 32.9517 28.982 32.9517L36.9044 27.656C37.1429 28.4797 37.3472 29.2777 37.5169 30.0352C38.9002 36.1949 35.854 42.7861 29.8028 44.986V44.986Z" fill="#C71D1D"/>
</svg>
